<svg width="78" height="54" viewBox="0 0 78 54" fill="none" xmlns="http://www.w3.org/2000/svg">
  <path
    d="M33 0C30.306 0 28.311 1.35 26.532 3.1212C24.762 4.8735 23.322 7.2576 22.593 10.125C22.581 10.1574 22.605 10.179 22.593 10.2087C21.81 12.9087 20.694 17.5716 19.782 21.6C17.682 19.9665 15 18.9 12 18.9C5.37 18.9 0 23.733 0 29.7C0 35.3835 1.629 41.7879 7.593 46.4913C13.56 51.192 23.298 54 39 54C54.714 54 64.548 51.1407 70.5 46.4049C76.452 41.6718 78 35.262 78 29.7C78 23.733 72.63 18.9 66 18.9C63.1417 18.9057 60.3804 19.834 58.218 21.5163L58.125 21.4326C58.125 21.4218 58.032 21.4407 58.032 21.4326C56.964 16.9803 56.112 13.2354 55.407 10.2087C54.69 7.1712 53.181 4.7142 51.375 2.9538C49.569 1.188 47.577 0 45 0C42.552 0 40.944 1.1286 39.843 1.8576C39.456 2.1087 39.246 2.2896 39 2.4462C38.754 2.2896 38.544 2.1087 38.157 1.8576C37.056 1.1286 35.448 0 33 0ZM33 5.4C32.952 5.4 33.669 5.6214 34.593 6.2451C35.061 6.5502 35.544 6.8877 36.186 7.2549C36.831 7.6248 37.629 8.1 39 8.1C40.371 8.1 41.169 7.6248 41.814 7.2549C42.456 6.8877 42.939 6.5502 43.404 6.2451C44.334 5.6214 45.048 5.4 45 5.4C44.823 5.4 45.927 5.6538 46.968 6.6663C48.012 7.6788 49.101 9.3015 49.593 11.3913C50.427 14.9337 51.633 19.9773 52.689 24.3837C52.5369 24.4754 52.3797 24.5601 52.218 24.6375C50.19 25.704 46.254 27 39 27C31.746 27 27.81 25.704 25.782 24.6375C25.548 24.5214 25.407 24.4161 25.218 24.3C26.25 19.818 27.54 14.4288 28.407 11.475V11.3913C28.887 9.4392 29.967 7.8165 31.032 6.75C32.097 5.6835 33.306 5.4 33 5.4ZM12 24.3C15.48 24.3 17.871 26.379 18 29.4462V29.5326C17.8723 30.0362 17.9045 30.5621 18.093 31.05C18.1187 31.1361 18.1497 31.2208 18.186 31.3038C18.774 36.5661 22.065 40.0896 26.064 41.5962C30.456 43.2621 35.25 43.2 39 43.2C42.831 43.2 47.685 43.1568 52.032 41.4288C56.073 39.8142 59.448 36.1746 59.907 30.8799C60.0368 30.498 60.0686 30.0946 60 29.7V29.6163C60.0117 29.504 60.0117 29.3911 60 29.2788C60.198 26.2926 62.589 24.3 66 24.3C69.573 24.3 72 26.4843 72 29.7C72 34.4034 70.863 38.8665 66.468 42.3576C62.073 45.846 53.883 48.6 39 48.6C24.105 48.6 15.915 45.9 11.532 42.4413C7.149 38.9799 6 34.5519 6 29.7C6 26.4843 8.427 24.3 12 24.3ZM24 29.8701C27.177 31.2606 31.851 32.4 39 32.4C46.149 32.4 50.823 31.2606 54 29.8674C53.952 34.0335 52.323 35.3646 49.593 36.45C46.815 37.557 42.669 37.8 39 37.8C35.25 37.8 31.044 37.7379 28.311 36.7038C25.617 35.6778 24.036 34.344 24 29.8701Z"
    fill="#CC6237" />
</svg>